# xmcd CD database file
#
# Track frame offsets:
#	225
#	20475
#	42571
#	56440
#	77216
#	99566
#	122000
#	139194
#	157511
#	171417
#	193530
#	211401
#	234136
#	246657
#	265474
#
# Disc length: 3765 seconds
#
# Revision: 1
# Processed by: cddbd v1.5PL3 Copyright (c) Steve Scherf et al.
# Submitted via: CDex 1.51
#
DISCID=d00eb20f
DTITLE=Various Artist - Trio Paradiso - Live!
DYEAR=2000
DGENRE=Jazz
TTITLE0=The Dolphin
TTITLE1=Triste
TTITLE2=Amazone
TTITLE3=Gentle Rain
TTITLE4=How Insensitive
TTITLE5=Waltz For Debby
TTITLE6=My Romance
TTITLE7=Embraceable You
TTITLE8=Oleo
TTITLE9=Up Jumped Spring
TTITLE10=Easy To Love
TTITLE11=We'll Be Together Again
TTITLE12=St. Thomas
TTITLE13=Broadway
TTITLE14=Nardis
EXTD=YEAR: 2000
EXTT0=
EXTT1=
EXTT2=
EXTT3=
EXTT4=
EXTT5=
EXTT6=
EXTT7=
EXTT8=
EXTT9=
EXTT10=
EXTT11=
EXTT12=
EXTT13=
EXTT14=
PLAYORDER=
